<?xml version="1.0" encoding="UTF-8"?>
<svg id="Layer_1" data-name="Layer 1" xmlns="http://www.w3.org/2000/svg" viewBox="0 0 2000 2000">
  <defs>
    <style>
      .cls-1 {
        fill: #f85506;
        stroke-width: 0px;
      }
    </style>
  </defs>
  <path class="cls-1" d="m893.71,704.26c0,11.98,0,21.09,0,30.21.02,169.39,0,338.79.07,508.18.01,41.54,19.13,53.02,54.97,32.39,118.73-68.34,237.26-137.02,355.92-205.49,19.32-11.15,39.36-21.11,58.28-32.89,37.24-23.17,37.37-45.37-.06-67.32-71.65-42.02-143.76-83.24-215.7-124.77-78.93-45.56-157.78-91.28-236.96-136.43-10.94-6.24-15.3-13.12-15.27-26.16.48-184.91.33-369.81.34-554.72,0-3.72-.11-7.45.09-11.17,1.68-30.96,20.72-41.81,47.5-26.51,64.05,36.59,127.92,73.51,191.84,110.33,91.32,52.61,182.27,105.9,274.16,157.49,28.15,15.8,40.17,36.29,40.12,68.76-.65,399.6-.59,799.19-.1,1198.79.04,29.98-10.79,49.81-37.06,64.8-150.76,86.05-300.97,173.07-451.36,259.78-12.35,7.12-24.74,14.17-36.89,21.61-19.26,11.8-37.87,11.82-57.7.32-117.97-68.42-236.21-136.36-354.32-204.53-47.25-27.27-94.27-54.98-141.68-81.97-20.48-11.66-29.59-28.75-29.57-51.88.16-192.35.2-384.7.21-577.06,0-22.52,9.54-39,29.13-50.28,93.47-53.84,186.81-107.9,280.22-161.84,73-42.16,146.03-84.28,219.08-126.36,7.35-4.23,14.94-8.04,24.76-13.29Z"/>
</svg>